<svg width="100" height="100" viewBox="0 0 100 100" fill="none" xmlns="http://www.w3.org/2000/svg">
<g clip-path="url(#clip0_2_258)">
<path d="M49.955 100C77.1822 100 99.2541 77.6142 99.2541 50C99.2541 22.3858 77.1822 0 49.955 0C22.7279 0 0.655975 22.3858 0.655975 50C0.655975 77.6142 22.7279 100 49.955 100Z" fill="#B00000" fill-opacity="0.15"/>
<path d="M36.0526 23.8868C42.2492 20.5497 49.4394 19.6398 56.2546 21.3301C63.0698 23.0205 69.0343 27.1933 73.0131 33.0542C76.9918 38.9151 78.7072 46.0552 77.8324 53.1155C76.9577 60.1757 73.5541 66.6634 68.2695 71.3439C62.9847 76.0243 56.1877 78.5707 49.172 78.4985C42.1563 78.4263 35.4116 75.7406 30.2216 70.9524C25.0316 66.1642 21.7585 59.6078 21.0252 52.531C20.2919 45.4541 22.1497 38.3509 26.2449 32.573" stroke="#B00000" stroke-width="3" stroke-linecap="round" stroke-linejoin="round"/>
<path d="M34.6502 24.1659L36.5675 19.9624" stroke="#B00000" stroke-width="2" stroke-linecap="round" stroke-linejoin="round"/>
<path d="M34.6488 23.874L38.7036 25.5302" stroke="#B00000" stroke-width="2" stroke-linecap="round" stroke-linejoin="round"/>
<path d="M49.462 72.1268C61.7833 72.1268 71.7717 61.9964 71.7717 49.4999C71.7717 37.0035 61.7833 26.873 49.462 26.873C37.1406 26.873 27.1523 37.0035 27.1523 49.4999C27.1523 61.9964 37.1406 72.1268 49.462 72.1268Z" stroke="#B00000" stroke-width="3"/>
<path d="M49.4621 30.4521H49.4621C48.7706 30.4521 48.2101 31.0207 48.2101 31.722V33.4151C48.2101 34.1164 48.7706 34.6849 49.4621 34.6849H49.4621C50.1536 34.6849 50.7141 34.1164 50.7141 33.4151V31.722C50.7141 31.0207 50.1536 30.4521 49.4621 30.4521Z" fill="#B00000"/>
<path d="M49.4626 64.3145H49.4626C48.7711 64.3145 48.2105 64.883 48.2105 65.5843V67.2774C48.2105 67.9787 48.7711 68.5472 49.4626 68.5472H49.4626C50.1541 68.5472 50.7146 67.9787 50.7146 67.2774V65.5843C50.7146 64.883 50.1541 64.3145 49.4626 64.3145Z" fill="#B00000"/>
<path d="M68.2424 49.4998V49.4998C68.2424 48.7985 67.6819 48.23 66.9904 48.23H65.321C64.6295 48.23 64.069 48.7985 64.069 49.4998V49.4998C64.069 50.2011 64.6295 50.7696 65.321 50.7696H66.9904C67.6819 50.7696 68.2424 50.2011 68.2424 49.4998Z" fill="#B00000"/>
<path d="M34.855 49.4998V49.4998C34.855 48.7985 34.2945 48.23 33.603 48.23H31.9336C31.2422 48.23 30.6816 48.7985 30.6816 49.4998V49.4998C30.6816 50.2011 31.2422 50.7696 31.9336 50.7696H33.603C34.2945 50.7696 34.855 50.2011 34.855 49.4998Z" fill="#B00000"/>
<path d="M42.9555 49.6328L47.5704 54.1822L57.1525 44.7361" stroke="#B00000" stroke-width="3" stroke-linecap="round" stroke-linejoin="round"/>
</g>
<defs>
<clipPath id="clip0_2_258">
<rect width="99.5841" height="100" fill="white" transform="translate(0.261688)"/>
</clipPath>
</defs>
</svg>
