<svg width="101" height="100" viewBox="0 0 101 100" fill="none" xmlns="http://www.w3.org/2000/svg">
<path d="M50.3756 100C77.6027 100 99.6747 77.6142 99.6747 50C99.6747 22.3858 77.6027 0 50.3756 0C23.1485 0 1.07654 22.3858 1.07654 50C1.07654 77.6142 23.1485 100 50.3756 100Z" fill="#B00000" fill-opacity="0.15"/>
<path d="M75.1167 62.5393V64.0078C75.1167 64.9947 74.7302 65.9411 74.0422 66.6389C73.3542 67.3367 72.421 67.7288 71.448 67.7288H27.4226C26.4496 67.7288 25.5164 67.3367 24.8284 66.6389C24.1404 65.9411 23.7539 64.9947 23.7539 64.0078V36.7209C23.7539 35.7341 24.1404 34.7876 24.8284 34.0898C25.5164 33.392 26.4496 33 27.4226 33H71.448C72.421 33 73.3542 33.392 74.0422 34.0898C74.7302 34.7876 75.1167 35.7341 75.1167 36.7209V42.7489" stroke="#B00000" stroke-width="3" stroke-linecap="round" stroke-linejoin="round"/>
<path d="M69.1512 43.2324V47.3862" stroke="#B00000" stroke-width="3" stroke-miterlimit="10" stroke-linecap="round" stroke-linejoin="round"/>
<path d="M69.1512 57.0786V61.2324" stroke="#B00000" stroke-width="3" stroke-miterlimit="10" stroke-linecap="round" stroke-linejoin="round"/>
<path d="M76.4654 47.8906L73.0669 49.8386" stroke="#B00000" stroke-width="3" stroke-miterlimit="10" stroke-linecap="round" stroke-linejoin="round"/>
<path d="M65.2353 54.624L61.8369 56.572" stroke="#B00000" stroke-width="3" stroke-miterlimit="10" stroke-linecap="round" stroke-linejoin="round"/>
<path d="M61.8369 47.892L65.2351 49.8405" stroke="#B00000" stroke-width="3" stroke-miterlimit="10" stroke-linecap="round" stroke-linejoin="round"/>
<path d="M73.0677 54.6263L76.4657 56.5748" stroke="#B00000" stroke-width="3" stroke-miterlimit="10" stroke-linecap="round" stroke-linejoin="round"/>
<path d="M31.048 57.7303L38.7443 49.9247L44.3966 55.6574L56.2041 43.682" stroke="#B00000" stroke-width="3" stroke-miterlimit="10" stroke-linecap="round" stroke-linejoin="round"/>
</svg>
