<svg width="99" height="100" viewBox="0 0 99 100" fill="none" xmlns="http://www.w3.org/2000/svg">
<path d="M49.6373 100C76.8644 100 98.9364 77.6142 98.9364 50C98.9364 22.3858 76.8644 0 49.6373 0C22.4102 0 0.338226 22.3858 0.338226 50C0.338226 77.6142 22.4102 100 49.6373 100Z" fill="#B00000" fill-opacity="0.15"/>
<path d="M42.9741 75.601C43.1907 75.6965 43.4243 75.7459 43.6606 75.7462C44.3623 75.7445 44.9941 75.3139 45.2602 74.6554L46.6643 71.2142C48.3724 71.4509 50.1044 71.4484 51.8119 71.2068L53.2218 74.6512C53.3953 75.0842 53.7323 75.4289 54.1578 75.6084C54.5834 75.7878 55.062 75.7872 55.487 75.6066L61.3559 73.1387C61.7892 72.9582 62.1328 72.6085 62.3093 72.1683C62.4823 71.743 62.4779 71.2648 62.2974 70.8427L60.8934 67.3932C62.2674 66.3378 63.4926 65.0967 64.5347 63.7044L67.9158 65.1237C68.3419 65.3105 68.8243 65.3156 69.2542 65.1378C69.684 64.96 70.0253 64.6143 70.2011 64.1785L72.6378 58.2187C72.8132 57.789 72.8144 57.3065 72.6409 56.876C72.4679 56.4408 72.1285 56.0951 71.7002 55.9177L69.2931 54.9013L30.0732 54.5386L26.7544 55.926C25.884 56.3052 25.4783 57.3257 25.846 58.2112L28.2726 64.1821C28.4493 64.6104 28.7861 64.9502 29.2092 65.1273C29.6326 65.3085 30.1101 65.3093 30.5341 65.1296L33.938 63.7038C34.982 65.0971 36.2073 66.3403 37.5806 67.3996L36.1851 70.8212C35.9977 71.2487 35.9901 71.735 36.164 72.1682C36.3401 72.6072 36.6825 72.9563 37.1143 73.1371L42.9741 75.601Z" stroke="#B00000" stroke-width="3"/>
<path d="M68.4416 55.2471H68.4408H33.3183C27.4106 55.2471 22.6215 50.3898 22.6215 44.3981C22.6215 38.4064 27.4106 33.5492 33.3183 33.5492C33.3929 33.5492 33.4594 33.5497 33.5215 33.5511L34.514 33.574L34.9109 32.6512C36.9092 28.0042 41.4327 25 46.4314 25C51.4301 25 55.9536 28.0042 57.952 32.6512L58.3297 33.5295L59.2743 33.5511C62.9329 33.6348 66.2037 35.885 67.6332 39.3017L67.9905 40.1557L68.9034 40.213C72.9047 40.4638 75.9857 43.8932 75.8608 47.9571C75.736 52.021 72.4505 55.2493 68.4416 55.2471Z" stroke="#B00000" stroke-width="3"/>
<path d="M49.2391 65.5468H49.2411C55.1569 65.523 60.4536 61.824 62.5859 56.2274C62.7409 55.8261 62.6717 55.3713 62.4047 55.0359C62.1376 54.7004 61.7136 54.5361 61.2939 54.6055C60.8746 54.6748 60.5242 54.9668 60.3758 55.3705C58.6126 60.0534 54.1827 63.1471 49.2401 63.1471C44.2975 63.1471 39.8677 60.0534 38.1044 55.3704C37.9561 54.9668 37.6056 54.6748 37.1863 54.6055C36.7667 54.5361 36.3426 54.7004 36.0755 55.0359C35.8085 55.3713 35.7394 55.8261 35.8944 56.2273C38.0266 61.824 43.3233 65.523 49.2391 65.5468Z" fill="#B00000" stroke="#B00000" stroke-width="0.5"/>
</svg>
