<svg width="90" height="27" viewBox="0 0 90 27" fill="none" xmlns="http://www.w3.org/2000/svg">
<path d="M3.82344 1.43923V24.0211C3.82344 24.2328 3.91804 24.4125 4.03872 24.431C4.72356 24.5297 5.48441 24.5297 6.28378 24.431C6.93617 24.3432 7.73214 24.1812 8.71504 23.934C8.6792 24.2792 8.66153 24.6519 8.66153 25.0545C8.66153 25.3971 8.68177 25.8136 8.71997 26.2646H0.984741V1.44369C1.13212 1.46618 1.32224 1.50669 1.55733 1.56236C1.90058 1.66461 2.25286 1.66711 2.46279 1.56968L3.15863 1.56433C3.4234 1.50151 3.64247 1.45779 3.82344 1.43923ZM13.0957 2.6741C12.683 2.77421 12.4082 2.77618 12.2099 2.67946H11.5141C11.2682 2.6211 11.0805 2.58381 10.9391 2.56007V26.2644H13.632V2.55472C13.477 2.57542 13.3007 2.61432 13.0957 2.6741ZM15.7629 2.53741C15.7888 2.87379 15.8019 3.21017 15.8019 3.53905C15.8019 3.97161 15.7896 4.35349 15.7667 4.67988H16.2164C17.4907 4.39989 18.5607 4.25677 19.3811 4.25677C19.5125 4.25677 19.6181 4.44058 19.6181 4.66649V26.2646H22.2305V4.66649C22.2305 4.4404 22.3366 4.25677 22.4671 4.25677C23.0641 4.25677 23.9185 4.35224 25.008 4.53926C25.2836 4.60832 25.576 4.65204 25.881 4.67202C25.8501 4.34439 25.8501 3.96893 25.8821 3.54904C25.8485 3.21409 25.8501 2.87397 25.8883 2.53759H15.7629V2.53741ZM28.0313 2.53741V26.2646H35.4088C35.3729 25.8372 35.3538 25.4466 35.3538 25.1238C35.3538 24.7544 35.3702 24.4085 35.3999 24.0918C34.8978 24.2246 34.3384 24.3306 33.7383 24.4019C33.0404 24.4995 32.0792 24.5468 30.8796 24.5468C30.7493 24.5468 30.6437 24.3623 30.6437 24.1346V14.9645C30.6437 14.7389 30.7493 14.5546 30.8796 14.5546H32.8538C33.5117 14.6213 34.0403 14.6886 34.5698 14.7548L34.9606 14.8019C34.9492 14.7112 34.9364 14.6088 34.9221 14.5003L34.9149 12.85C34.9149 12.8036 34.9187 12.7585 34.928 12.7187C34.933 12.6869 34.9386 12.6537 34.9444 12.6232C34.2491 12.7731 33.6135 12.8361 32.8539 12.8361H30.8797C30.7494 12.8361 30.6438 12.6516 30.6438 12.4255V4.66649C30.6438 4.4404 30.7494 4.25677 30.8797 4.25677C32.3359 4.25677 33.8651 4.4213 35.4276 4.74751C35.3784 4.3733 35.3538 4.0139 35.3538 3.67967C35.3538 3.2819 35.3783 2.89841 35.4285 2.53741H28.0313ZM46.5156 18.9746C46.459 16.0423 45.1623 13.4403 42.6539 11.2602C40.7948 9.59616 39.8926 7.97905 39.8926 6.32215C39.8926 3.64987 40.7933 2.18265 42.4981 2.07594C43.6582 2.07594 44.5506 3.15574 45.1551 5.29017C45.2182 4.91471 45.3065 4.43469 45.4211 3.83099C45.5607 3.19161 45.6791 2.65519 45.7782 2.2121C44.8867 1.28951 43.8118 0.774687 42.5818 0.68457C39.487 0.969019 37.926 3.4459 37.8188 8.25511C37.8188 11.4952 39.0006 14.0974 41.3322 15.9804C43.2815 17.5191 44.2687 19.2829 44.2687 21.2166C44.145 23.9342 43.2129 25.3577 41.4957 25.4648C39.797 25.3622 38.7342 23.9728 38.3307 21.334H38.3005C38.1918 22.7679 38.0187 24.1839 37.7862 25.5458C38.8197 26.2255 39.8927 26.6168 40.9777 26.7079C44.4049 26.7071 46.297 23.8862 46.5156 18.9746ZM51.0275 15.5596C50.9866 15.5644 50.9271 15.5826 50.8774 15.6675C50.8343 15.7425 50.8091 15.8444 50.8091 15.9491V26.2644H48.098V2.53349H52.982C55.7784 2.53349 57.1641 4.39061 57.2157 8.20639C57.2359 10.283 56.9071 11.9358 56.2399 13.1166C55.321 14.743 53.7131 15.5674 51.4604 15.5674C51.3219 15.5674 51.1837 15.5639 51.0275 15.5596ZM51.0031 14.3634C51.1074 14.3898 51.2199 14.4039 51.3337 14.4039C51.6668 14.4039 52.0513 14.2921 52.4747 14.0726C53.7051 13.461 54.3884 11.7226 54.5033 8.87968C54.3884 5.67473 53.6629 3.89184 52.332 3.5808H51.0358C50.9111 3.5808 50.8091 3.75783 50.8091 3.97411V13.9769C50.8091 14.1711 50.8915 14.337 51.0031 14.3634ZM68.0603 2.53349V26.2644H75.4501C75.415 25.8333 75.396 25.4359 75.396 25.1052C75.396 24.7292 75.4112 24.3761 75.444 24.055C74.9357 24.1903 74.3728 24.2986 73.7712 24.3702C73.0673 24.4664 72.135 24.5124 70.9181 24.5124C70.7929 24.5124 70.6914 24.3352 70.6914 24.1214V14.962C70.6914 14.7469 70.7929 14.5699 70.9181 14.5699H73.1071C73.9294 14.6561 74.6776 14.7378 75.3633 14.8192C75.351 14.7218 75.338 14.6124 75.3205 14.4928L75.3138 12.85C75.3138 12.805 75.3167 12.7624 75.3258 12.7247C75.3334 12.683 75.341 12.6418 75.3487 12.6046C74.6647 12.7453 73.9118 12.8182 73.1072 12.8182H70.9182C70.793 12.8182 70.6915 12.6418 70.6915 12.4269V4.67791C70.6915 4.46163 70.793 4.28586 70.9182 4.28586C72.3773 4.28586 73.9089 4.45307 75.4724 4.78016C75.4207 4.39739 75.3962 4.03264 75.3962 3.69305C75.3962 3.28511 75.4207 2.89841 75.4747 2.53366H68.0603V2.53349ZM81.8483 26.2646H77.3488V2.53349L83.1361 2.53152C87.0381 2.99317 89.0393 6.64443 89.2515 13.6725C88.9889 21.5708 86.4977 25.8076 81.8483 26.2646ZM86.216 13.6943C86.216 7.17174 84.5294 3.86133 81.2067 3.86133H80.2028C80.0801 3.86133 79.9778 4.03906 79.9778 4.25534V24.5442C79.9778 24.7583 80.0801 24.9362 80.2028 24.9362H81.0901C82.7887 24.9362 84.0844 23.9722 84.9426 22.076C85.7862 20.2043 86.216 17.3849 86.216 13.6943ZM58.7287 2.53349V26.2644H66.1174C66.0823 25.8333 66.0623 25.4359 66.0623 25.1052C66.0623 24.7292 66.0785 24.3761 66.1104 24.055C65.6005 24.1903 65.0389 24.2986 64.4385 24.3702C63.735 24.4664 62.8008 24.5124 61.5838 24.5124C61.4602 24.5124 61.3579 24.3352 61.3579 24.1214V14.962C61.3579 14.7469 61.4602 14.5699 61.5838 14.5699H63.7739C64.5974 14.6561 65.3444 14.7378 66.03 14.8192C66.0182 14.7218 66.0039 14.6124 65.9877 14.4928L65.9804 12.85C65.9804 12.805 65.9849 12.7624 65.993 12.7247C66.0001 12.683 66.0074 12.6418 66.0132 12.6046C65.332 12.7453 64.5797 12.8182 63.7739 12.8182H61.5838C61.4602 12.8182 61.3579 12.6418 61.3579 12.4269V4.67791C61.3579 4.46163 61.4602 4.28586 61.5838 4.28586C63.0428 4.28586 64.5749 4.45307 66.1384 4.78016C66.0881 4.39739 66.0624 4.03264 66.0624 3.69305C66.0624 3.28511 66.0893 2.89841 66.1396 2.53366H58.7287V2.53349Z" fill="#002D73"/>
</svg>
